<svg width="31" height="31" viewBox="0 0 31 31" fill="none" xmlns="http://www.w3.org/2000/svg">
<g clip-path="url(#clip0_87_1637)">
<path d="M15.5767 15.8619C18.2956 15.8619 20.4997 13.6214 20.4997 10.8577C20.4997 8.09396 18.2956 5.85352 15.5767 5.85352C12.8579 5.85352 10.6538 8.09396 10.6538 10.8577C10.6538 13.6214 12.8579 15.8619 15.5767 15.8619Z" fill="white"/>
<path d="M5.62915 25.5602C5.62915 25.5602 5.64511 18.8232 12.4081 16.4961C12.4081 16.4961 15.6852 18.2884 18.6157 16.5061C18.6157 16.5061 24.4033 17.8511 25.5242 25.5602C25.5242 25.5602 21.6355 30.0092 15.5727 30.0088C15.5727 30.0088 10.9341 30.7622 5.62915 25.5602Z" fill="white"/>
</g>
<circle cx="15.5" cy="15.5" r="14.5" stroke="white" stroke-width="2"/>
<defs>
<clipPath id="clip0_87_1637">
<rect width="21" height="25.5" fill="white" transform="translate(5 5)"/>
</clipPath>
</defs>
</svg>
